<?xml version="1.0" encoding="UTF-8"?><svg id="_層_1" xmlns="http://www.w3.org/2000/svg" xmlns:xlink="http://www.w3.org/1999/xlink" viewBox="0 0 248.68 44.44"><defs><style>.cls-1,.cls-2{fill:none;}.cls-3{clip-path:url(#clippath);}.cls-2{stroke:#003aa5;stroke-miterlimit:10;}</style><clipPath id="clippath"><rect class="cls-1" x="35.18" y=".19" width="178.2" height="44"/></clipPath></defs><g id="Group_18006" transform="translate(-137.763 -2906.999)"><g id="Group_18005" transform="translate(173 2906.999)"><g class="cls-3"><g id="Group_18004" transform="translate(0 0)"><path id="Path_9069" class="cls-2" d="M75.35,25.08c-1.12,3.99-3.13,7.66-5.89,10.74,2.42,1.51,5.07,2.61,7.84,3.26-1.25,1.25-2.32,2.67-3.17,4.22-3.02-.85-5.86-2.25-8.39-4.13-2.35,1.7-4.93,3.06-7.66,4.03-.69-1.31-1.53-2.54-2.49-3.67v3.81h-5.17v-3.81c-5.21,.55-10.38,1.09-14.37,1.5l-.5-4.58c1.22-.09,2.58-.18,4.03-.27v-13.87h-3.54v-4.26h40.44v4.26h-20.9v16.59c2.31-.73,4.49-1.8,6.48-3.17-1.72-2.05-3.12-4.34-4.17-6.8l2.99-.81h-4.35v-4.13h14.6l.91-.18,3.31,1.27Zm-29.65-8.12h-5.17V2.37h31.64v14.6h-5.44V6.13h-21.03v10.84Zm-1.22,7.12h5.94v-1.77h-5.94v1.77Zm0,5.62h5.94v-1.86h-5.94v1.86Zm0,6.12c1.9-.18,3.9-.32,5.94-.5v-1.9h-5.94v2.4Zm20.76-24.75h-18.05v-3.18h18.05v3.18Zm-18.05,1.77h17.91v3.35h-17.91v-3.35Zm15.19,15.28c.82,1.69,1.91,3.23,3.22,4.58,1.28-1.37,2.36-2.91,3.22-4.58h-6.44Z"/><path id="Path_9070" class="cls-2" d="M88.36,30.61c-1.15,3.27-2.69,6.39-4.58,9.29-1.13-.89-2.31-1.71-3.54-2.45,1.7-2.48,3.04-5.18,3.99-8.02l4.13,1.18Zm6.35-2.63v15.05h-5.21v-15.05h-8.43v-4.53h8.43v-3.49h-8.7v-4.44h4.4c-.3-1.61-.74-3.19-1.31-4.72l3.72-.91h-6.13V5.49h7.75c-.41-1.22-.91-2.49-1.36-3.58l5.39-1.31c.68,1.49,1.5,3.35,2.04,4.89h6.48v4.4h-5.67l3.67,.73c-.68,1.72-1.36,3.49-2.04,4.9h4.71v4.44h-7.75v3.49h7.03v4.53h-7.03Zm-6.52-18.1c.67,1.51,1.18,3.09,1.5,4.72l-3.26,.91h6.53c.76-1.84,1.41-3.71,1.95-5.62h-6.71Zm34.5,11.02h-4.21v22.26h-5.26V20.91h-4.22v.54c0,6.67-.59,16-4.44,21.81-1.24-1.25-2.65-2.33-4.17-3.22,.88-1.37,1.56-2.85,2.04-4.4l-3.22,2c-1.02-2.35-2.2-4.62-3.54-6.8l3.54-1.9c1.28,1.89,2.42,3.88,3.4,5.94,1.27-4.35,1.41-9.25,1.41-13.42V5.31c4.71-.77,9.31-2.06,13.74-3.86l4.13,3.95c-4.17,1.54-8.49,2.68-12.88,3.4v7.12h13.69v4.99Z"/><path id="Path_9071" class="cls-2" d="M133.92,22.86c-1.86-1.31-5.76-3.44-8.48-4.9l2.95-3.99c2.49,1.22,6.53,3.17,8.52,4.4l-2.99,4.49Zm5.67,5.67c-2.4,4.71-5.26,9.88-7.98,14.28l-4.58-3.63c3.18-4.56,6.04-9.33,8.57-14.28l3.99,3.63Zm-3.35-17.73c-2.6-1.92-5.31-3.69-8.12-5.3l3.17-3.81c2.49,1.36,6.3,3.49,8.21,4.81l-3.26,4.3Zm29.65,26.7c0,2.63-.45,3.99-2.18,4.85-1.68,.81-4.12,.91-7.52,.91-.29-1.76-.84-3.48-1.63-5.08,2.09,.14,4.44,.14,5.17,.09,.68-.04,.91-.23,.91-.81v-6.21c-4.53,1.22-9.25,2.4-13.01,3.35l-1.59-4.44c3.76-.73,9.25-1.95,14.6-3.22v-8.39h-14.6v9.07c0,5.08-.36,11.88-2.86,16.05-1.31-1.15-2.76-2.14-4.31-2.95,2.09-3.67,2.22-8.84,2.22-13.1V13.65h9.79V1.01h5.44V13.65h9.57v23.85Zm-21.94-24.75c-.94-2.98-2.31-5.81-4.08-8.39l4.53-1.99c1.88,2.48,3.38,5.23,4.44,8.16l-4.9,2.22Zm4.9,7.39c3.52,.79,6.93,2.01,10.15,3.62l-2.31,3.67c-3.17-1.74-6.53-3.09-10.02-4.03l2.18-3.26ZM167.56,3.91c-1.33,2.93-2.84,5.78-4.53,8.52l-4.67-1.72c1.56-2.77,2.88-5.67,3.94-8.66l5.26,1.86Z"/><path id="Path_9072" class="cls-2" d="M171.1,38.77c1.78-3.01,3.22-6.2,4.31-9.52l4.81,2c-1.16,3.39-2.54,6.71-4.12,9.93l-4.99-2.41Zm19.81-11.56h-13.01V5h10.43c.48-1.46,.87-2.94,1.18-4.44l6.53,.82c-.63,1.36-1.36,2.54-1.95,3.62h12.42V27.21h-13.05c1.85,1.77,3.45,3.78,4.76,5.98l-4.44,2.58c-1.44-2.63-3.26-5.04-5.39-7.16l2.54-1.4Zm6.39,10.47c2.18,0,2.54-.59,2.81-4.9,1.5,.94,3.16,1.58,4.9,1.9-.63,6.35-2.22,7.89-7.3,7.89h-8.61c-6.35,0-8.02-1.49-8.02-6.35v-6.25h5.49v6.21c0,1.36,.45,1.5,3.04,1.5h7.7Zm-14.19-26.48h17.91v-2.09h-17.91v2.09Zm0,5.94h17.91v-2.09h-17.91v2.09Zm0,5.98h17.91v-2.13h-17.91v2.13Zm24.84,5.26c2.14,2.97,3.84,6.24,5.03,9.7l-5.17,2.17c-1.07-3.5-2.63-6.82-4.62-9.88l4.76-1.99Z"/></g></g></g><path id="Path_55" class="cls-2" d="M225.5,40.42l9.05-15.67c.92-1.59,.92-3.54,0-5.13l-9.05-15.67"/><path id="Path_9073" class="cls-2" d="M23.18,40.42l-9.05-15.67c-.92-1.59-.92-3.54,0-5.13L23.18,3.95"/><path id="Path_56" class="cls-2" d="M238.45,40.42l9.05-15.67c.92-1.59,.92-3.54,0-5.13l-9.05-15.67"/><path id="Path_9074" class="cls-2" d="M10.23,40.42L1.19,24.75c-.92-1.59-.92-3.54,0-5.13L10.23,3.95"/></g></svg>