<?xml version="1.0" encoding="UTF-8"?><svg id="_層_1" xmlns="http://www.w3.org/2000/svg" viewBox="0 0 505.73 393.94"><defs><style>.cls-1{fill:none;fill-rule:evenodd;stroke:#62c1b6;stroke-miterlimit:10;}</style></defs><path class="cls-1" d="M252.98,8.62l.48,.24,.72,.24,.24,.71,.24,.48-.24,.72-.24,.71-.72,.24-.48,.24-.71-.24-.72-.24-.24-.71-.24-.72,.24-.48,.24-.71,.72-.24,.71-.24Zm231.46,12.66l.24,.24V315.81H21.28V21.28H484.44ZM12.92,.5l-1.19,.24-2.63,.95-2.39,1.2-2.15,1.67-1.67,2.15-1.43,2.39-.71,2.63-.24,1.44V324.16l.24,1.2,.71,2.63,1.43,2.39,1.67,2.15,2.15,1.67,2.39,1.44,2.63,.71,1.19,.24H492.8l1.43-.24,2.63-.71,2.39-1.44,1.91-1.67,1.67-2.15,1.43-2.39,.72-2.63,.24-1.2V13.16l-.24-1.44-.72-2.63-1.43-2.39-1.67-2.15-1.91-1.67-2.39-1.2-2.63-.95-1.43-.24H12.92ZM195.18,337.3l-.96,11.46-1.19,11.7-1.19,10.51-1.44,7.4-.71,2.87-.48,1.91-.72,1.43-.71,.72-1.91,.48-3.11,.71-7.4,1.2-5.73,.95-2.15,.48-1.2,.24-.24,.24v.72l.24,.24,1.67,.24,2.87,.24,10.51,.24,16.48,.24h109.16l16.24-.24,10.51-.24,3.11-.24,1.67-.24,.24-.24v-.72l-.24-.24-1.2-.24-2.15-.48-5.73-.95-7.4-1.2-3.1-.71-1.91-.48-.71-.72-.72-1.43-.71-1.91-.48-2.87-1.44-7.4-1.43-10.51-1.19-11.7-.72-11.46h-114.42Zm-27.71,53.98v1.19l.24,.24,4.54,.24,12.9,.24,34.88,.24h64.73l34.64-.24,13.14-.24,4.54-.24,.24-.24v-.95l-.24-.24-5.5,.24-10.03,.24-36.55,.24h-65.21l-36.55-.24-10.03-.24-5.49-.24h-.24Z"/></svg>